<mxfile host="app.diagrams.net" modified="2024-06-07T19:20:25.819Z" agent="Mozilla/5.0 (Macintosh; Intel Mac OS X 10_15_7) AppleWebKit/537.36 (KHTML, like Gecko) Chrome/125.0.0.0 Safari/537.36" version="24.5.2" etag="ChmeEF-nZ3oiecymk2wZ" type="github">
  <diagram name="Page-1" id="G-_J8DrhAEU9E4RUx0Yh">
    <mxGraphModel>
      <root>
        <mxCell id="0" />
        <mxCell id="1" parent="0" />
      </root>
    </mxGraphModel>
  </diagram>
</mxfile>
